<svg xmlns="http://www.w3.org/2000/svg" viewBox="0 0 90 90"><defs><style>.cls-1{fill:#fff;stroke:#006297;stroke-miterlimit:10;stroke-width:6px;}.cls-2{fill:#00375f;}.cls-3{fill:#0086bf;}</style></defs><g id="Layer_1" data-name="Layer 1"><path class="cls-1" d="M7.6,7.6H45A37.4,37.4,0,0,1,82.4,45v0A37.4,37.4,0,0,1,45,82.4h0A37.4,37.4,0,0,1,7.6,45V7.6A0,0,0,0,1,7.6,7.6Z" transform="translate(90 0) rotate(90)"/><polygon class="cls-2" points="23.38 39.19 23.38 42.07 30.36 42.07 30.36 48.68 23.38 48.68 23.38 57.43 15.62 57.43 15.62 32.57 30.95 32.57 30.95 39.19 23.38 39.19"/><path class="cls-2" d="M50,48.31l-1-1.57a7.44,7.44,0,0,0,3.63-6.5c0-3.5-1.78-7.67-10.28-7.67H33.9V57.43h7.86V49h.36l4.94,8.48h9ZM41.76,38.9h.46c2.45,0,2.45,1.1,2.45,1.62,0,1.06-.3,2.14-2.52,2.14h-.39Z"/><path class="cls-2" d="M72.75,49.64l1.08-.45v7l-.46.21a17.06,17.06,0,0,1-6.92,1.36c-3.72,0-6.64-1.12-8.66-3.32a11.47,11.47,0,0,1-2.74-6,19.29,19.29,0,0,1-.28-3.41,15,15,0,0,1,1.45-6.71,10.56,10.56,0,0,1,4.23-4.54,12.6,12.6,0,0,1,6.4-1.58A17.42,17.42,0,0,1,74.41,34l.65.31-2.49,6.42-.76-.36a20.72,20.72,0,0,0-2.49-1A8.28,8.28,0,0,0,66.79,39a3.24,3.24,0,0,0-2.86,1.5,8.23,8.23,0,0,0-1.12,4.63A13.59,13.59,0,0,0,62.94,47c.53,3.56,2.59,4,4.2,4a9.86,9.86,0,0,0,2.77-.39C70.86,50.36,71.81,50,72.75,49.64Z"/><path class="cls-3" d="M30.36,45.3v3.38h-7v8.75H15.62V47.84A27.54,27.54,0,0,1,30.36,45.3Z"/><path class="cls-3" d="M50,48.31l6.1,9.12h-9L42.12,49h-.36v8.48H33.9V45.68C39.27,46.42,44.64,47.81,50,48.31Z"/><path class="cls-3" d="M73.83,49.19v7l-.46.21a17.06,17.06,0,0,1-6.92,1.36c-3.72,0-6.64-1.12-8.66-3.32a11.47,11.47,0,0,1-2.74-6A26.44,26.44,0,0,0,62.94,47c.53,3.56,2.59,4,4.2,4a9.86,9.86,0,0,0,2.77-.39c1-.29,1.9-.62,2.84-1Z"/></g></svg>